<svg id="Layer_1" data-name="Layer 1" xmlns="http://www.w3.org/2000/svg" viewBox="0 0 25 25"><defs><style>.cls-1{fill:#fff;}</style></defs><ellipse class="cls-1" cx="7.09" cy="8.45" rx="2" ry="2.4"/><path class="cls-1" d="M8.07,11.7h-2a4.35,4.35,0,0,0,.11-.85H8A8.24,8.24,0,0,0,8.07,11.7Z"/><path class="cls-1" d="M8.07,10a1.15,1.15,0,0,0-.1.61c0,.08,0,.16,0,.25a8.24,8.24,0,0,0,.09.85h-2a4.35,4.35,0,0,0,.11-.85V10.6A2,2,0,0,0,6.11,10C5.94,9.53,8.37,9.6,8.07,10Z"/><ellipse class="cls-1" cx="17.87" cy="8.45" rx="2" ry="2.4"/><path class="cls-1" d="M18.84,11.7h-2a4.35,4.35,0,0,0,.11-.85h1.76C18.78,11.28,18.84,11.7,18.84,11.7Z"/><path class="cls-1" d="M18.84,10a1.15,1.15,0,0,0-.1.61c0,.08,0,.16,0,.25,0,.43.09.85.09.85h-2a4.35,4.35,0,0,0,.11-.85,1,1,0,0,0,0-.25,1.54,1.54,0,0,0-.11-.61C16.71,9.53,19.14,9.6,18.84,10Z"/><ellipse class="cls-1" cx="12.55" cy="6.36" rx="2" ry="2.4"/><path class="cls-1" d="M13.31,8.76H11.79A3.19,3.19,0,0,0,8.6,12h7.91A3.19,3.19,0,0,0,13.31,8.76Z"/><path class="cls-1" d="M13.52,9.61H11.57a3.65,3.65,0,0,0,0-1.71c-.18-.46,2.26-.39,1.95,0S13.52,9.61,13.52,9.61Z"/><path class="cls-1" d="M21.61,15.39c-.09,3-2.48,4.87-4.7,5.65h0a3.47,3.47,0,0,0-1-2.16,3.56,3.56,0,0,0-2.2-1,.17.17,0,0,1-.16-.17h0a.16.16,0,0,1,.08-.16,2.75,2.75,0,0,0,1.15-2.32,2.46,2.46,0,0,0-2.2-2.65,2.46,2.46,0,0,0-2.21,2.65,2.72,2.72,0,0,0,1.24,2.37c.29.17.13.27.13.27h-.12A3.53,3.53,0,0,0,8.2,21H8.09c-2.22-.78-4.61-2.62-4.7-5.65A4.91,4.91,0,0,1,6.1,11.05H18.9A4.91,4.91,0,0,1,21.61,15.39Z"/></svg>