<svg id="Layer_1" data-name="Layer 1" xmlns="http://www.w3.org/2000/svg" viewBox="0 0 25 25"><defs><style>.cls-1{fill:#272727;}</style></defs><path class="cls-1" d="M12.5,4A8.54,8.54,0,1,0,21,12.5,8.54,8.54,0,0,0,12.5,4Zm1.78,13.23c-.44.18-.79.31-1,.4a2.87,2.87,0,0,1-.92.14,1.82,1.82,0,0,1-1.24-.39,1.28,1.28,0,0,1-.44-1,4,4,0,0,1,0-.48c0-.16.06-.34.11-.55l.55-1.94c0-.18.09-.36.12-.53a1.88,1.88,0,0,0,.05-.45.7.7,0,0,0-.15-.52.86.86,0,0,0-.59-.15,1.39,1.39,0,0,0-.44.07l-.38.12.15-.59c.36-.15.7-.28,1-.38a2.93,2.93,0,0,1,.93-.16,1.83,1.83,0,0,1,1.23.38,1.31,1.31,0,0,1,.43,1q0,.12,0,.45a3.32,3.32,0,0,1-.11.58L13,15.14a3.22,3.22,0,0,0-.12.53,2.32,2.32,0,0,0-.05.45.64.64,0,0,0,.17.53,1,1,0,0,0,.6.14,1.6,1.6,0,0,0,.45-.07l.36-.12Zm-.1-7.86a1.28,1.28,0,0,1-.92.36,1.32,1.32,0,0,1-.93-.36A1.15,1.15,0,0,1,12,8.47a1.17,1.17,0,0,1,.38-.87,1.32,1.32,0,0,1,.93-.35,1.28,1.28,0,0,1,.92.35,1.13,1.13,0,0,1,.38.87A1.11,1.11,0,0,1,14.18,9.33Z"/></svg>