<svg id="Layer_1" data-name="Layer 1" xmlns="http://www.w3.org/2000/svg" viewBox="0 0 25 25"><defs><style>.cls-1{fill:#fff;}.cls-2{fill:none;stroke:#fff;stroke-miterlimit:10;stroke-width:0.64px;}</style></defs><path class="cls-1" d="M12.74,5.65v.7a.24.24,0,0,1-.48,0v-.7Z"/><path class="cls-1" d="M10,6.68a.25.25,0,0,1-.16.3H9.78a.22.22,0,0,1-.22-.17l-.2-.69L9.8,6Z"/><path class="cls-1" d="M7.41,8.08a.17.17,0,0,1-.12,0A.25.25,0,0,1,7.08,8l-.41-.64c.14-.09.27-.18.4-.25l.41.64A.22.22,0,0,1,7.41,8.08Z"/><path class="cls-1" d="M5.39,9.84a.23.23,0,0,1-.17.07.27.27,0,0,1-.16,0L4.41,9.3,4.72,9l.64.56A.23.23,0,0,1,5.39,9.84Z"/><path class="cls-1" d="M3.94,12.09a.22.22,0,0,1-.21.14.13.13,0,0,1-.1,0l-.88-.4A3.42,3.42,0,0,1,3,11.38l.85.4A.23.23,0,0,1,3.94,12.09Z"/><path class="cls-1" d="M3.18,14.66a.21.21,0,0,1-.23.2h0L1.84,14.7a3.69,3.69,0,0,1,.08-.46L3,14.39A.23.23,0,0,1,3.18,14.66Z"/><path class="cls-1" d="M3.18,17.34a.23.23,0,0,1-.19.27l-1.21.16a3.26,3.26,0,0,1-.05-.45l1.19-.18A.22.22,0,0,1,3.18,17.34Z"/><path class="cls-1" d="M23.27,17.32a3.26,3.26,0,0,1-.05.45L22,17.61a.23.23,0,0,1-.19-.27.22.22,0,0,1,.26-.2Z"/><path class="cls-1" d="M23.16,14.7l-1.08.16h0a.21.21,0,0,1-.23-.2.23.23,0,0,1,.19-.27l1.07-.15A3.69,3.69,0,0,1,23.16,14.7Z"/><path class="cls-1" d="M22.25,11.8l-.88.4a.13.13,0,0,1-.1,0,.22.22,0,0,1-.21-.14.23.23,0,0,1,.12-.31l.85-.4A3.42,3.42,0,0,1,22.25,11.8Z"/><path class="cls-1" d="M20.59,9.3l-.65.57a.27.27,0,0,1-.16,0,.23.23,0,0,1-.17-.07.23.23,0,0,1,0-.33L20.28,9Z"/><path class="cls-1" d="M18.33,7.37,17.92,8a.25.25,0,0,1-.21.11.17.17,0,0,1-.12,0,.22.22,0,0,1-.07-.32l.41-.64C18.06,7.19,18.19,7.28,18.33,7.37Z"/><path class="cls-1" d="M15.64,6.12l-.2.69a.22.22,0,0,1-.22.17h-.07a.25.25,0,0,1-.16-.3L15.2,6Z"/><path class="cls-2" d="M2,18.93a11.13,11.13,0,0,1-.28-2.47,10.81,10.81,0,1,1,21.62,0,11,11,0,0,1-.39,2.89"/><circle class="cls-1" cx="12.5" cy="14.86" r="0.78"/><path class="cls-1" d="M12.24,14.6l5.07-4.55-4.55,5.07a.37.37,0,1,1-.55-.49Z"/></svg>