<svg id="Layer_1" data-name="Layer 1" xmlns="http://www.w3.org/2000/svg" viewBox="0 0 25 25"><defs><style>.cls-1{fill:#03a9f4;}.cls-2{fill:#fff;}</style></defs><path class="cls-1" d="M20.36,4H4.64a.6.6,0,0,0-.6.6V20.36a.6.6,0,0,0,.6.6H20.36a.6.6,0,0,0,.6-.6V4.64A.6.6,0,0,0,20.36,4Z"/><path class="cls-2" d="M17.57,13.64a5.1,5.1,0,0,0-5.89-6.07,3,3,0,0,0-4.56,2.48,2.89,2.89,0,0,0,.4,1.49,5.11,5.11,0,0,0,6,6,3,3,0,0,0,1.4.34A2.94,2.94,0,0,0,17.57,13.64Zm-5,2.4a3.07,3.07,0,0,1-2.68-1.13c-.91-1.28.29-1.92.87-1.43s.34,1.41,1.77,1.41c.64,0,1.42-.27,1.42-.9,0-1.26-2.8-.66-3.92-2a1.69,1.69,0,0,1,0-2c.87-1.12,3.44-1.19,4.55-.34s.74,1.83-.08,1.83c-1,0-.47-1.29-2.07-1.29-1.16,0-1.61.82-.8,1.22,1.09.54,3.93.38,3.93,2.52C15.55,15.35,14.09,16,12.54,16Z"/></svg>