<svg id="Layer_1" data-name="Layer 1" xmlns="http://www.w3.org/2000/svg" viewBox="0 0 25 25"><defs><style>.cls-1{fill:#fff;}.cls-2{fill:none;stroke:#fff;stroke-miterlimit:10;stroke-width:1.04px;}</style></defs><path class="cls-1" d="M22.48,9.35v2.17H18.74v-.63H16.48v.63H8.67v-.63H6.31v.63H2.52V9.32a.93.93,0,0,1,.93-.93H21.52A1,1,0,0,1,22.48,9.35Z"/><path class="cls-1" d="M22.48,12.56V21h-19a.93.93,0,0,1-.93-.93V12.56H6.31V14H8.67V12.56h7.81V14h2.26V12.56Z"/><path class="cls-2" d="M8.45,7.73V6A1.79,1.79,0,0,1,10.24,4.2h4.45A1.78,1.78,0,0,1,16.47,6V7.73"/></svg>