<svg id="Layer_1" data-name="Layer 1" xmlns="http://www.w3.org/2000/svg" viewBox="0 0 25 25"><defs><style>.cls-1{fill:#1da1f2;}.cls-2{fill:#fff;}</style></defs><path class="cls-1" d="M20.36,4H4.64a.6.6,0,0,0-.6.6V20.36a.6.6,0,0,0,.6.6H20.36a.6.6,0,0,0,.6-.6V4.64A.6.6,0,0,0,20.36,4Z"/><path class="cls-2" d="M10.43,17a6.47,6.47,0,0,0,6.51-6.51,2.71,2.71,0,0,0,0-.29A4.81,4.81,0,0,0,18.08,9a4.53,4.53,0,0,1-1.32.36,2.3,2.3,0,0,0,1-1.26,4.5,4.5,0,0,1-1.46.55,2.29,2.29,0,0,0-3.95,1.57,2.24,2.24,0,0,0,.06.52A6.52,6.52,0,0,1,7.7,8.39a2.28,2.28,0,0,0,.71,3,2.27,2.27,0,0,1-1-.28v0a2.3,2.3,0,0,0,1.84,2.25,2.43,2.43,0,0,1-.61.08,3.13,3.13,0,0,1-.43,0,2.31,2.31,0,0,0,2.14,1.59,4.61,4.61,0,0,1-2.84,1,5.09,5.09,0,0,1-.55,0,6.5,6.5,0,0,0,3.51,1"/></svg>