<svg id="Layer_1" data-name="Layer 1" xmlns="http://www.w3.org/2000/svg" viewBox="0 0 25 25"><defs><style>.cls-1{fill:#fff;}.cls-2{fill:none;stroke:#fff;stroke-linecap:round;stroke-linejoin:round;}</style></defs><path class="cls-1" d="M.73,9l1.48,1,10-2.84a.74.74,0,0,1,.14,1.48c-1.58.2-7.93,2.27-9.33,2.45-.11,0,8.64,3.68,9.16,3.91a.76.76,0,0,0,.59,0l11.13-4.83a.74.74,0,0,0,0-1.36L12.8,4a.68.68,0,0,0-.59,0C2.74,8.13.73,9,.73,9Z"/><path class="cls-2" d="M4.21,8.88s-2.83.35-2.78,2.44,2.3,8.81,0,9.27"/><path class="cls-1" d="M11.62,16.4,5.4,13.71a.23.23,0,0,0-.32.21v2.66c0,2.5,3.26,4.46,7.42,4.46s7.42-2,7.42-4.46V13.92a.23.23,0,0,0-.32-.21L13.39,16.4A2.27,2.27,0,0,1,11.62,16.4Z"/></svg>